<?xml version="1.0" encoding="UTF-8" standalone="no"?>
<!-- Created with Inkscape (http://www.inkscape.org/) -->

<svg
   xmlns:dc="http://purl.org/dc/elements/1.1/"
   xmlns:cc="http://creativecommons.org/ns#"
   xmlns:rdf="http://www.w3.org/1999/02/22-rdf-syntax-ns#"
   xmlns:svg="http://www.w3.org/2000/svg"
   xmlns="http://www.w3.org/2000/svg"
   xmlns:sodipodi="http://sodipodi.sourceforge.net/DTD/sodipodi-0.dtd"
   xmlns:inkscape="http://www.inkscape.org/namespaces/inkscape"
   width="210mm"
   height="297mm"
   viewBox="0 0 210 297"
   version="1.1"
   id="svg8"
   inkscape:version="0.92.4 (5da689c313, 2019-01-14)"
   sodipodi:docname="illustration.svg">
  <defs
     id="defs2" />
  <sodipodi:namedview
     id="base"
     pagecolor="#ffffff"
     bordercolor="#666666"
     borderopacity="1.0"
     inkscape:pageopacity="0.0"
     inkscape:pageshadow="2"
     inkscape:zoom="5.6"
     inkscape:cx="329.41999"
     inkscape:cy="589.59699"
     inkscape:document-units="mm"
     inkscape:current-layer="layer1"
     showgrid="false"
     inkscape:window-width="3840"
     inkscape:window-height="2056"
     inkscape:window-x="0"
     inkscape:window-y="56"
     inkscape:window-maximized="1">
    <inkscape:grid
       type="xygrid"
       id="grid4691" />
  </sodipodi:namedview>
  <metadata
     id="metadata5">
    <rdf:RDF>
      <cc:Work
         rdf:about="">
        <dc:format>image/svg+xml</dc:format>
        <dc:type
           rdf:resource="http://purl.org/dc/dcmitype/StillImage" />
        <dc:title></dc:title>
      </cc:Work>
    </rdf:RDF>
  </metadata>
  <g
     inkscape:label="Layer 1"
     inkscape:groupmode="layer"
     id="layer1">
    <path
       style="fill:#656565;fill-opacity:1;stroke:#000000;stroke-width:0.26458332px;stroke-linecap:butt;stroke-linejoin:miter;stroke-opacity:1"
       d="m 18.048363,174.74671 9.638393,-16.65296 73.374624,-1.03944 -0.14174,17.03095 z"
       id="path4591"
       inkscape:connector-curvature="0"
       sodipodi:nodetypes="ccccc"
       inkscape:export-xdpi="301.62"
       inkscape:export-ydpi="301.62" />
    <path
       style="fill:#7f7f7f;fill-opacity:1;stroke:#000000;stroke-width:0.26458332;stroke-opacity:1"
       d="m 68.353966,165.93755 a 3.9756349,3.9756349 0 0 0 -3.401343,1.92753 3.9756347,3.9756347 0 0 0 -3.313491,3.91914 3.9756347,3.9756347 0 0 0 1.039212,2.67322 l 15.779398,-0.12609 a 3.9756349,3.9756349 0 0 0 0.286805,-1.47795 3.9756349,3.9756349 0 0 0 -3.975986,-3.97598 3.9756349,3.9756349 0 0 0 -0.907436,0.11007 3.9756349,3.9756349 0 0 0 -2.356446,-1.495 3.9756349,3.9756349 0 0 0 -3.150713,-1.55494 z m -38.452949,1.20302 a 3.9756349,3.9756349 0 0 0 -3.150711,1.55495 3.9756349,3.9756349 0 0 0 -2.356446,1.49448 3.9756349,3.9756349 0 0 0 -0.907439,-0.10955 3.9756349,3.9756349 0 0 0 -3.975984,3.97546 3.9756349,3.9756349 0 0 0 0.07235,0.74518 l 16.655314,-0.13281 a 3.9756349,3.9756349 0 0 0 0.377753,-1.68155 3.9756349,3.9756349 0 0 0 -3.313491,-3.91914 3.9756349,3.9756349 0 0 0 -3.401343,-1.92702 z m 14.833203,1.60352 a 3.9756349,3.9756349 0 0 0 -3.975468,3.97547 3.9756349,3.9756349 0 0 0 0.487826,1.90893 l 16.549894,-0.13229 a 3.9756349,3.9756349 0 0 0 0.06718,-0.70745 3.9756349,3.9756349 0 0 0 -3.975468,-3.97547 3.9756349,3.9756349 0 0 0 -2.78071,1.13533 3.9756349,3.9756349 0 0 0 -2.297533,-0.73484 3.9756349,3.9756349 0 0 0 -0.907439,0.11007 3.9756349,3.9756349 0 0 0 -3.168282,-1.57975 z m 51.650077,0 a 3.9756349,3.9756349 0 0 0 -3.168283,1.57975 3.9756349,3.9756349 0 0 0 -0.907954,-0.11007 3.9756349,3.9756349 0 0 0 -2.297018,0.73433 3.9756349,3.9756349 0 0 0 -2.780709,-1.13482 3.9756349,3.9756349 0 0 0 -3.975984,3.97547 3.9756349,3.9756349 0 0 0 0.03617,0.50384 l 16.799491,-0.13384 a 3.9756349,3.9756349 0 0 0 0.26975,-1.43919 3.9756349,3.9756349 0 0 0 -3.975467,-3.97547 z"
       id="path4593-9-1-2"
       inkscape:export-xdpi="301.62"
       inkscape:export-ydpi="301.62"
       inkscape:connector-curvature="0" />
    <path
       style="fill:#ffffff;fill-opacity:1;stroke:#000000;stroke-width:0.99999994px;stroke-linecap:butt;stroke-linejoin:miter;stroke-opacity:1"
       d="M 386.25 592.69727 L 173.58594 595.23633 L 173.75 594.8418 L 169.10742 594.8418 L 168.91602 595.29102 L 101.23828 596.09961 L 64.642578 660.63867 L 66.964844 703.67383 L 387.14258 701.35352 L 386.25 592.69727 z M 381.95898 594.35352 L 381.42773 657.96094 L 308.57227 659.21094 L 316.39844 595.10156 L 381.95898 594.35352 z M 309.97266 595.17578 L 300.89258 659.16602 L 228.33984 659.32422 L 245.08789 595.91602 L 309.97266 595.17578 z M 236.83594 596.00977 L 220.89258 658.94531 L 146.60742 659.92383 L 172.95898 596.74023 L 236.83594 596.00977 z M 168.27539 596.79297 L 141.18945 660.38672 L 68.214844 660.45898 L 104.64258 597.51953 L 168.27539 596.79297 z "
       transform="scale(0.26458333)"
       id="path3738"
       inkscape:export-xdpi="301.62"
       inkscape:export-ydpi="301.62" />
    <path
       style="fill:#7f7f7f;fill-opacity:1;stroke:#000000;stroke-width:0.99999994px;stroke-linecap:butt;stroke-linejoin:miter;stroke-opacity:1"
       d="M 358.85742 459.35547 L 73.488281 600.52344 L 75.513672 605.08203 L 84.117188 600.82422 L 84.095703 600.77539 L 140.91602 572.49219 L 141.00977 572.68164 L 359.18359 464.75391 L 375.63086 483.23633 L 378.75195 481.71094 L 358.85742 459.35547 z M 375.63086 483.23633 L 311.37891 514.65039 L 313.47266 517.28125 L 256.40039 545.56445 L 254.59766 542.41211 L 219.38477 559.62695 L 221.04492 562.48438 L 176.3457 586.22461 L 174.21484 581.71094 L 149.16797 593.95703 L 150.58594 596.83008 L 93.259766 625.87305 L 91.574219 622.11523 L 84.599609 625.52539 L 75.513672 605.08203 L 73.814453 605.92188 L 84.925781 630.92383 L 379.07812 487.10938 L 375.63086 483.23633 z M 91.574219 622.11523 L 149.16797 593.95703 L 148.39062 592.37891 L 92.933594 620.47461 L 86.134766 605.32031 L 84.421875 606.17383 L 91.574219 622.11523 z M 86.134766 605.32031 L 141.24219 577.89062 L 148.39062 592.37891 L 150.25977 591.43164 L 141.00977 572.68164 L 84.117188 600.82422 L 86.134766 605.32031 z M 174.21484 581.71094 L 219.38477 559.62695 L 218.57227 558.22656 L 176.01953 580.82617 L 169.57227 567.17188 L 167.75977 568.04102 L 174.21484 581.71094 z M 169.57227 567.17188 L 211.95312 546.82812 L 218.57227 558.22656 L 220.71875 557.08594 L 211.62695 541.42969 L 167.43359 562.64258 L 169.57227 567.17188 z M 254.59766 542.41211 L 311.37891 514.65039 L 310.29883 513.29492 L 256.07422 540.16602 L 250.45312 530.33203 L 248.31836 531.42383 L 254.59766 542.41211 z M 250.45312 530.33203 L 302.61523 503.64453 L 310.29883 513.29492 L 313.14648 511.88281 L 302.28906 498.24609 L 247.99219 526.02539 L 250.45312 530.33203 z "
       transform="scale(0.26458333)"
       id="path4547-3"
       inkscape:export-xdpi="301.62"
       inkscape:export-ydpi="301.62" />
    <path
       style="fill:#ffffff;fill-opacity:1;stroke:#000000;stroke-width:0.99999994px;stroke-linecap:butt;stroke-linejoin:miter;stroke-opacity:1"
       d="M 358.85742 459.35547 L 73.488281 600.52344 L 84.599609 625.52539 L 378.75195 481.71094 L 358.85742 459.35547 z M 302.28906 498.24609 L 313.14648 511.88281 L 256.07422 540.16602 L 247.99219 526.02539 L 302.28906 498.24609 z M 211.62695 541.42969 L 220.71875 557.08594 L 176.01953 580.82617 L 167.43359 562.64258 L 211.62695 541.42969 z M 140.91602 572.49219 L 150.25977 591.43164 L 92.933594 620.47461 L 84.095703 600.77539 L 140.91602 572.49219 z "
       transform="scale(0.26458333)"
       id="path4547"
       inkscape:export-xdpi="301.62"
       inkscape:export-ydpi="301.62" />
    <path
       style="fill:none;stroke:#000000;stroke-width:0.26458332px;stroke-linecap:butt;stroke-linejoin:miter;stroke-opacity:1"
       d="m 19.443858,158.88847 2.939965,6.61492 77.827427,-38.05081 -5.263752,-5.91503 z"
       id="path3730"
       inkscape:connector-curvature="0"
       sodipodi:nodetypes="ccccc"
       inkscape:export-xdpi="301.62"
       inkscape:export-ydpi="301.62" />
    <path
       style="fill:#ffffff;stroke:#000000;stroke-width:0.26458332px;stroke-linecap:butt;stroke-linejoin:miter;stroke-opacity:1;fill-opacity:1"
       d="m 94.880678,119.46622 0.06682,2.07133 -75.50364,37.35092 -0.925947,-1.8952 z"
       id="path3736"
       inkscape:connector-curvature="0"
       inkscape:export-xdpi="301.62"
       inkscape:export-ydpi="301.62" />
    <path
       style="fill:none;stroke:#000000;stroke-width:0.26458332px;stroke-linecap:butt;stroke-linejoin:miter;stroke-opacity:1"
       d="m 82.729537,129.36756 c -2.915935,0.0212 -9.732887,17.19791 -10.866814,42.38058"
       id="path4599"
       inkscape:connector-curvature="0"
       sodipodi:nodetypes="cc"
       inkscape:export-xdpi="301.62"
       inkscape:export-ydpi="301.62" />
    <path
       style="fill:none;stroke:#000000;stroke-width:0.26458332px;stroke-linecap:butt;stroke-linejoin:miter;stroke-opacity:1"
       d="m 83.412965,130.2407 c -2.047309,-0.94764 -9.699478,15.66111 -10.833405,40.84378"
       id="path4599-3"
       inkscape:connector-curvature="0"
       sodipodi:nodetypes="cc"
       inkscape:export-xdpi="301.62"
       inkscape:export-ydpi="301.62" />
    <path
       style="fill:none;stroke:#000000;stroke-width:0.26458332px;stroke-linecap:butt;stroke-linejoin:miter;stroke-opacity:1"
       d="m 82.042801,128.53981 c -2.849117,0.42212 -9.732887,17.19791 -10.866814,42.38058"
       id="path4599-5"
       inkscape:connector-curvature="0"
       sodipodi:nodetypes="cc"
       inkscape:export-xdpi="301.62"
       inkscape:export-ydpi="301.62" />
    <path
       style="fill:#7f7f7f;fill-opacity:0.49803922;stroke:none;stroke-width:0.26458332px;stroke-linecap:butt;stroke-linejoin:miter;stroke-opacity:1"
       d="m 71.248512,149.08847 c 3.590773,-2.03162 2.220611,-0.94494 4.677456,-4.39397 -0.06315,4.50479 1.543401,3.02381 2.126114,7.22879 0,0 -5.622394,-1.03943 -6.80357,-2.83482 z"
       id="path4722"
       inkscape:connector-curvature="0"
       sodipodi:nodetypes="cccc"
       inkscape:export-xdpi="301.62"
       inkscape:export-ydpi="301.62" />
    <ellipse
       style="fill:#7f7f7f;fill-opacity:1;stroke:#000000;stroke-width:0.21757363;stroke-opacity:1"
       id="path4593-9"
       cx="74.072151"
       cy="151.29468"
       inkscape:export-xdpi="301.62"
       inkscape:export-ydpi="301.62"
       rx="3.9988465"
       ry="2.6727953" />
    <ellipse
       style="fill:#ffffff;fill-opacity:1;stroke:#000000;stroke-width:0.21757363;stroke-opacity:1"
       id="path4593"
       cx="74.172958"
       cy="150.97949"
       inkscape:export-xdpi="301.62"
       inkscape:export-ydpi="301.62"
       rx="3.9988463"
       ry="2.6727951" />
    <path
       style="fill:#ffffff;fill-opacity:1;stroke:#000000;stroke-width:0.26458332px;stroke-linecap:butt;stroke-linejoin:miter;stroke-opacity:1"
       d="m 21.047475,167.24064 1.678343,2.405 78.148952,-39.57412 -0.0966,-3.83786 -79.730735,41.00698 v 0"
       id="path4545"
       inkscape:connector-curvature="0"
       sodipodi:nodetypes="cccccc"
       inkscape:export-xdpi="301.62"
       inkscape:export-ydpi="301.62" />
    <path
       style="fill:#ffffff;fill-opacity:1;stroke:#000000;stroke-width:0.26458332px;stroke-linecap:butt;stroke-linejoin:miter;stroke-opacity:1"
       d="m 16.503893,156.48304 77.708614,-38.01909 0.668173,1.00227 -76.362769,37.52705 3.598642,8.07581 77.798767,-39.73746 0.86285,0.90204 -79.730695,41.00698 z"
       id="path3732"
       inkscape:connector-curvature="0"
       sodipodi:nodetypes="ccccccccc"
       inkscape:export-xdpi="301.62"
       inkscape:export-ydpi="301.62" />
    <path
       style="fill:none;stroke:#000000;stroke-width:0.26458332px;stroke-linecap:butt;stroke-linejoin:miter;stroke-opacity:1"
       d="m 70.225067,169.81311 1.637655,1.93503 1.736624,-1.80139"
       id="path4705"
       inkscape:connector-curvature="0"
       inkscape:export-xdpi="301.62"
       inkscape:export-ydpi="301.62" />
    <circle
       style="fill:#7f7f7f;fill-opacity:1;stroke:#000000;stroke-width:0.26458332;stroke-opacity:1"
       id="path4593-9-1"
       cx="85.258987"
       cy="128.28612"
       r="3.9756346"
       inkscape:export-xdpi="301.62"
       inkscape:export-ydpi="301.62" />
  </g>
</svg>
